<svg width="24" height="25" viewBox="0 0 24 25" fill="none" xmlns="http://www.w3.org/2000/svg">
<path d="M11 2.37793C9.67392 2.37793 8.40215 2.90471 7.46447 3.8424C6.52678 4.78008 6 6.05185 6 7.37793C6 8.70401 6.52678 9.97578 7.46447 10.9135C8.40215 11.8511 9.67392 12.3779 11 12.3779C12.3261 12.3779 13.5979 11.8511 14.5355 10.9135C15.4732 9.97578 16 8.70401 16 7.37793C16 6.05185 15.4732 4.78008 14.5355 3.8424C13.5979 2.90471 12.3261 2.37793 11 2.37793ZM11 13.3779C8.605 13.3779 6.425 14.0719 4.822 15.0499C4.022 15.5379 3.338 16.1139 2.844 16.7399C2.358 17.3539 2 18.0909 2 18.8779C2 19.7229 2.411 20.3889 3.003 20.8639C3.563 21.3139 4.302 21.6119 5.087 21.8199C6.665 22.2369 8.771 22.3779 11 22.3779L11.685 22.3729C11.8525 22.3706 12.0167 22.3263 12.1626 22.244C12.3085 22.1617 12.4313 22.0441 12.5199 21.902C12.6085 21.7598 12.66 21.5977 12.6696 21.4305C12.6792 21.2633 12.6467 21.0963 12.575 20.9449C12.1958 20.1423 11.9994 19.2656 12 18.3779C12 17.1259 12.383 15.9659 13.037 15.0049C13.1342 14.8621 13.1928 14.6966 13.207 14.5244C13.2212 14.3522 13.1905 14.1793 13.118 14.0225C13.0455 13.8657 12.9336 13.7304 12.7932 13.6297C12.6528 13.529 12.4888 13.4664 12.317 13.4479C11.8863 13.4013 11.4473 13.3779 11 13.3779ZM15.5 15.0689C16.253 14.6299 17.179 14.5729 18 15.0229C18.821 14.5729 19.747 14.6299 20.5 15.0689C21.416 15.6029 22.026 16.6589 22 17.8569C21.964 19.4269 20.752 20.6549 19.114 21.6279C18.771 21.8309 18.411 22.0449 18 22.0449C17.59 22.0449 17.229 21.8309 16.886 21.6279C15.248 20.6549 14.036 19.4259 14.001 17.8579C13.974 16.6599 14.584 15.6029 15.5 15.0689Z" fill="#591A0E"/>
</svg>
