<svg width="19" height="21" viewBox="0 0 19 21" fill="none" xmlns="http://www.w3.org/2000/svg">
<path fill-rule="evenodd" clip-rule="evenodd" d="M16.6711 0.208032C16.9576 0.160258 17.251 0.175444 17.531 0.252535C17.811 0.329625 18.0708 0.46677 18.2925 0.654436C18.5141 0.842102 18.6922 1.07579 18.8144 1.33924C18.9366 1.6027 19 1.88961 19.0001 2.18003V14C18.9999 14.8805 18.7092 15.7364 18.173 16.4348C17.6369 17.1332 16.8853 17.6353 16.0347 17.863C15.1842 18.0908 14.2823 18.0315 13.4688 17.6944C12.6554 17.3574 11.9759 16.7613 11.5358 15.9987C11.0956 15.2362 10.9194 14.3497 11.0344 13.4767C11.1494 12.6037 11.5492 11.7931 12.1718 11.1705C12.7945 10.548 13.6051 10.1482 14.4781 10.0333C15.3511 9.91844 16.2376 10.0948 17.0001 10.535V6.18003L7.00009 7.84703V15C7.00009 15.06 6.99509 15.118 6.98509 15.174C7.05688 15.943 6.87231 16.7141 6.46014 17.3673C6.04796 18.0204 5.43133 18.5189 4.70631 18.785C3.98129 19.0512 3.18861 19.07 2.45176 18.8386C1.7149 18.6073 1.07527 18.1387 0.632507 17.5059C0.189745 16.8731 -0.0312786 16.1116 0.00387287 15.3401C0.0390244 14.5686 0.328376 13.8303 0.826848 13.2404C1.32532 12.6505 2.00491 12.242 2.75975 12.0786C3.51459 11.9152 4.30228 12.0061 5.00009 12.337V3.84703C5.00003 3.37359 5.16793 2.91549 5.47391 2.55421C5.77988 2.19293 6.2041 1.95191 6.67109 1.87403L16.6711 0.208032ZM7.00009 5.82003L17.0001 4.15303V2.18003L7.00009 3.84703V5.82003Z" fill="#52180D"/>
</svg>
